<!DOCTYPE svg PUBLIC "-//W3C//DTD SVG 1.1//EN" "http://www.w3.org/Graphics/SVG/1.1/DTD/svg11.dtd">
<!-- Uploaded to: SVG Repo, www.svgrepo.com, Transformed by: SVG Repo Mixer Tools -->
<svg width="256px" height="256px" viewBox="-52.48 -52.48 232.96 232.96" xmlns="http://www.w3.org/2000/svg" xmlns:xlink="http://www.w3.org/1999/xlink" aria-hidden="true" role="img" class="iconify iconify--noto" preserveAspectRatio="xMidYMid meet" fill="#000000" stroke="#000000" stroke-width="0.00128">
<g id="SVGRepo_bgCarrier" stroke-width="0" transform="translate(0,0), scale(1)">
<rect x="-52.48" y="-52.48" width="232.96" height="232.96" rx="116.48" fill="#0f1729" strokewidth="0"/>
</g>
<g id="SVGRepo_tracerCarrier" stroke-linecap="round" stroke-linejoin="round" stroke="#CCCCCC" stroke-width="1.024"/>
<g id="SVGRepo_iconCarrier">
<path d="M98.89 36.51c1.23 0 2.24-1 2.24-2.24V17.55c0-1.24-1.01-2.24-2.24-2.24H29.1c-1.24 0-2.24 1-2.24 2.24v100.97c0 1.24 1 2.24 2.24 2.24h69.8c1.23 0 2.24-1 2.24-2.24V101.8c0-1.24-1.01-2.24-2.24-2.24H53.24V77.51h35.12c1.23 0 2.24-1 2.24-2.24V58.55c0-1.24-1.01-2.24-2.24-2.24H53.24v-19.8h45.65z" fill="#fbbd23"/>
</g>
</svg>